#!OML:ASF H:\Terrain\Patient Classification 1\PLAYGROUND\JustinFriday\JustinFriday.ASF
:FULLY-SPECIFIED
:DEGREES
1927
root 13.7297 27.4255 49.7681 -181.92 14.9567 -173.906
lowerback 29.8419 -4.0391 0.638239
upperback 4.43836 -4.00667 0.293806
thorax -11.4603 -1.44838 1.43014
lowerneck -9.59351 3.94932 -18.0937
upperneck 15.6 6.84467 11.1428
head 5.2326 3.31353 7.00111
rclavicle 2.42517e-014 2.54444e-014
rhumerus 102.944 12.6871 -73.8566
rradius 37.3784
rwrist -343.24
rhand -14.402 -23.727
rfingers 7.12502
rthumb 11.7415 -53.3779
lclavicle 2.42517e-014 2.54444e-014
lhumerus 26.8876 3.15519 50.9186
lradius 74.6107
lwrist -17.1644
lhand -44.4936 -20.4607
lfingers 7.12502
lthumb -17.2963 8.78962
rfemur -59.3 10.6137 29.3225
rtibia 100.967
rfoot -28.9619 -4.73741
rtoes -4.55427
lfemur -17.1188 22.4815 -16.0775
ltibia 27.159
lfoot -190.23 178.936
ltoes 16.404
1928
root 13.7415 27.4574 49.7775 -182.305 15.0512 -173.968
lowerback 30.1331 -3.99786 0.501638
upperback 4.52959 -3.96427 0.28487
thorax -11.4918 -1.41012 1.49125
lowerneck -9.43938 3.97837 -18.3218
upperneck 16.1863 6.93204 11.121
head 5.37107 3.33526 7.0572
rclavicle 4.6118e-014 3.33958e-014
rhumerus 102.543 12.8928 -73.9126
rradius 37.7944
rwrist -343.377
rhand -14.4678 -23.8859
rfingers 7.12502
rthumb 11.678 -53.5405
lclavicle 4.6118e-014 3.33958e-014
lhumerus 28.9283 4.40071 50.0644
lradius 75.2908
lwrist -17.0583
lhand -45.3524 -21.5357
lfingers 7.12502
lthumb -18.1227 7.64
rfemur -59.8001 10.5361 29.6866
rtibia 100.643
rfoot -29.067 -4.94626
rtoes -6.9721
lfemur -16.3835 22.3844 -15.9111
ltibia 26.592
lfoot -189.744 179.094
ltoes 13.3964
1929
root 13.7496 27.4846 49.7816 -182.555 15.0908 -173.952
lowerback 30.2342 -4.00837 0.525905
upperback 4.62426 -3.94728 0.273547
thorax -11.4353 -1.3948 1.4579
lowerneck -9.34457 3.97699 -18.4916
upperneck 16.6825 6.98386 11.05
head 5.50211 3.33973 7.08509
rclavicle -1.23246e-014 3.97569e-015
rhumerus 102.19 13.0815 -73.9751
rradius 38.1802
rwrist -343.642
rhand -14.616 -23.9413
rfingers 7.12502
rthumb 11.5351 -53.6039
lclavicle -1.23246e-014 3.97569e-015
lhumerus 30.7949 5.62919 49.1373
lradius 76.0999
lwrist -17.051
lhand -47.2822 -22.1316
lfingers 7.12502
lthumb -19.9785 6.86139
rfemur -60.3087 10.5735 29.8437
rtibia 100.334
rfoot -29.7244 -3.42733
rtoes -6.65865
lfemur -15.8243 22.3165 -15.7587
ltibia 26.0487
lfoot -189.377 179.24
ltoes 12.2432
1930
root 13.7553 27.5024 49.7814 -182.764 14.9941 -173.993
lowerback 30.2043 -4.06594 0.562136
upperback 4.72135 -3.99702 0.236689
thorax -11.3124 -1.41427 1.40812
lowerneck -9.26357 3.9933 -18.431
upperneck 17.1207 7.06461 10.7394
head 5.63403 3.3532 6.99534
rclavicle 3.57812e-015 4.29375e-014
rhumerus 101.743 13.3831 -74.2635
rradius 38.6505
rwrist -343.724
rhand -14.6456 -23.9036
rfingers 7.12502
rthumb 11.5065 -53.5678
lclavicle 3.57812e-015 4.29375e-014
lhumerus 32.7488 6.79783 48.019
lradius 76.5631
lwrist -17.1117
lhand -50.2527 -23.0961
lfingers 7.12502
lthumb -22.8316 5.5725
rfemur -60.8481 10.4256 29.9877
rtibia 99.8748
rfoot -30.088 -2.82499
rtoes -6.37704
lfemur -15.4238 22.1137 -15.7326
ltibia 25.6275
lfoot -189.061 179.423
ltoes 12.2916
1931
root 13.7681 27.5168 49.7836 -182.851 14.9341 -173.885
lowerback 30.0669 -4.09842 0.664316
upperback 4.81965 -3.99541 0.23108
thorax -11.1377 -1.41492 1.33121
lowerneck -9.12075 4.03755 -18.2784
upperneck 17.4323 7.15008 10.4623
head 5.71605 3.37895 6.89308
rclavicle -3.57812e-014 -5.56597e-015
rhumerus 101.193 13.7152 -74.7383
rradius 39.2692
rwrist -343.503
rhand -14.5628 -23.9165
rfingers 7.12502
rthumb 11.5864 -53.5762
lclavicle -3.57812e-014 -5.56597e-015
lhumerus 34.9812 8.00076 46.9719
lradius 76.5523
lwrist -17.6297
lhand -51.5838 -24.7804
lfingers 7.12502
lthumb -24.1085 3.72491
rfemur -61.392 10.3277 30.3951
rtibia 99.2536
rfoot -30.1336 -3.01149
rtoes -7.03044
lfemur -15.1747 21.9675 -15.5471
ltibia 25.298
lfoot -188.594 179.636
ltoes 13.0975
1932
root 13.7945 27.5307 49.7886 -182.922 15.1003 -173.913
lowerback 29.9579 -3.94051 0.378498
upperback 4.86866 -3.87723 0.2586
thorax -11.0049 -1.35077 1.47359
lowerneck -8.91019 4.0348 -18.2508
upperneck 17.7059 7.15911 10.3137
head 5.77529 3.37087 6.84639
rclavicle 7.11649e-014 -2.06736e-014
rhumerus 100.511 14.1436 -75.3813
rradius 40.1145
rwrist -343.004
rhand -14.3203 -24.0241
rfingers 7.12502
rthumb 11.8202 -53.6706
lclavicle 7.11649e-014 -2.06736e-014
lhumerus 37.2281 9.22316 46.1153
lradius 76.3091
lwrist -18.4384
lhand -51.8149 -25.7697
lfingers 7.12502
lthumb -24.33 2.70607
rfemur -61.8601 10.443 30.7846
rtibia 98.4956
rfoot -30.0811 -3.38223
rtoes -7.20397
lfemur -14.9465 22.2297 -15.4458
ltibia 25.0028
lfoot -188.121 179.746
ltoes 13.8461
1933
root 13.8102 27.5486 49.7854 -183.133 14.9583 -173.985
lowerback 30.0223 -3.95806 0.245062
upperback 4.91922 -3.92642 0.26604
thorax -10.9672 -1.3631 1.57776
lowerneck -8.83397 3.95921 -18.2744
upperneck 18.1202 7.10907 10.161
head 5.91044 3.32794 6.81829
rclavicle -6.36111e-015 -1.82882e-014
rhumerus 100.182 14.1038 -75.0832
rradius 40.4418
rwrist -343.518
rhand -14.5429 -24.0402
rfingers 7.12502
rthumb 11.6056 -53.6988
lclavicle -6.36111e-015 -1.82882e-014
lhumerus 39.2489 10.4157 44.9817
lradius 75.8466
lwrist -19.1942
lhand -52.8825 -27.5458
lfingers 7.12502
lthumb -25.3532 0.788846
rfemur -62.0548 10.1365 31.0544
rtibia 97.658
rfoot -30.175 -3.72942
rtoes -6.64491
lfemur -14.5813 22.03 -15.422
ltibia 24.7385
lfoot -187.815 179.987
ltoes 14.0345
1934
root 13.8263 27.5608 49.7802 -183.286 14.8288 -173.896
lowerback 30.0579 -4.00544 0.275815
upperback 4.9698 -3.95819 0.310652
thorax -10.9245 -1.37307 1.62205
lowerneck -8.7779 3.93802 -18.2353
upperneck 18.5609 7.14414 9.94419
head 6.05108 3.32516 6.76412
rclavicle 3.10104e-014 -4.77083e-015
rhumerus 99.7769 14.2457 -75.1099
rradius 40.8305
rwrist -343.744
rhand -14.5751 -23.9179
rfingers 7.12502
rthumb 11.5746 -53.5782
lclavicle 3.10104e-014 -4.77083e-015
lhumerus 41.2116 11.505 43.4554
lradius 75.4385
lwrist -18.9451
lhand -53.6752 -29.2127
lfingers 7.12502
lthumb -26.1124 -0.988051
rfemur -62.1911 9.85432 31.5007
rtibia 96.7799
rfoot -30.0475 -4.43726
rtoes -5.9877
lfemur -14.1871 21.7051 -15.221
ltibia 24.46
lfoot -187.684 180.263
ltoes 14.1896
1935
root 13.8397 27.5703 49.7728 -183.399 14.6895 -173.781
lowerback 30.0468 -4.07925 0.394076
upperback 5.00767 -4.00158 0.352049
thorax -10.8799 -1.39341 1.61535
lowerneck -8.49318 4.02143 -18.096
upperneck 18.7028 7.27935 9.58001
head 6.05432 3.37155 6.62244
rclavicle -5.64548e-014 3.49861e-014
rhumerus 99.3895 14.4464 -75.2248
rradius 41.191
rwrist -343.794
rhand -14.5178 -23.8444
rfingers 7.12502
rthumb 11.6298 -53.5017
lclavicle -5.64548e-014 3.49861e-014
lhumerus 43.3789 12.6255 42.4274
lradius 74.5525
lwrist -20.2955
lhand -55.575 -30.5155
lfingers 7.12502
lthumb -27.93 -2.57274
rfemur -62.2504 9.4674 32.0019
rtibia 95.8079
rfoot -29.5987 -5.44366
rtoes -5.28294
lfemur -13.7728 21.1521 -15.0164
ltibia 24.0914
lfoot -187.55 180.723
ltoes 14.6112
1936
root 13.8573 27.58 49.7643 -183.555 14.6148 -173.762
lowerback 30.0179 -4.07741 0.317932
upperback 5.06048 -4.00944 0.383815
thorax -10.796 -1.39112 1.6939
lowerneck -8.10194 4.10968 -18.0222
upperneck 18.6783 7.39646 9.25188
head 5.98534 3.41168 6.48927
rclavicle -9.78021e-014 3.89618e-014
rhumerus 99.0016 14.68 -75.4156
rradius 41.59
rwrist -343.655
rhand -14.5485 -23.8409
rfingers 7.12502
rthumb 11.6002 -53.4998
lclavicle -9.78021e-014 3.89618e-014
lhumerus 45.6398 13.8128 41.9474
lradius 73.7129
lwrist -21.8914
lhand -56.2331 -31.5997
lfingers 7.12502
lthumb -28.559 -3.761
rfemur -62.1795 9.18016 32.4281
rtibia 94.8113
rfoot -29.0917 -6.60213
rtoes -5.69291
lfemur -13.3677 20.7603 -14.8977
ltibia 23.7641
lfoot -187.306 181.14
ltoes 14.8702
1937
root 13.8925 27.5866 49.756 -183.965 14.7395 -173.993
lowerback 30.2051 -3.85671 -0.322652
upperback 5.13589 -3.90093 0.40773
thorax -10.7548 -1.31016 2.0523
lowerneck -7.79097 4.15708 -18.1766
upperneck 18.8403 7.47595 9.1752
head 5.97385 3.43693 6.48768
rclavicle -8.54774e-015 2.54444e-014
rhumerus 98.5025 14.9263 -75.6543
rradius 42.0855
rwrist -343.441
rhand -14.5358 -23.8184
rfingers 7.12502
rthumb 11.6124 -53.4767
lclavicle -8.54774e-015 2.54444e-014
lhumerus 47.6071 14.9904 41.1489
lradius 73.1363
lwrist -21.701
lhand -55.3125 -34.3198
lfingers 7.12502
lthumb -27.679 -6.33645
rfemur -61.8277 9.28302 32.6714
rtibia 93.8717
rfoot -28.5688 -8.15118
rtoes -6.44103
lfemur -12.7418 21.1459 -14.8703
ltibia 23.5038
lfoot -187.106 181.005
ltoes 15.0292
1938
root 13.916 27.5884 49.7403 -184.108 14.5585 -174.087
lowerback 30.0314 -3.85177 -0.512312
upperback 5.17999 -3.9524 0.41458
thorax -10.6011 -1.33038 2.17756
lowerneck -7.45134 4.18435 -18.3475
upperneck 18.9866 7.51987 9.12401
head 5.95562 3.44641 6.49392
rclavicle -5.68524e-014 -1.59028e-015
rhumerus 97.9762 15.1284 -75.8826
rradius 42.5508
rwrist -343.401
rhand -14.6413 -23.7236
rfingers 7.12502
rthumb 11.5107 -53.3875
lclavicle -5.68524e-014 -1.59028e-015
lhumerus 49.432 16.0714 40.0994
lradius 72.0514
lwrist -22.4837
lhand -56.3345 -37.4452
lfingers 7.12502
lthumb -28.6558 -9.62278
rfemur -61.6944 9.09443 32.8828
rtibia 92.941
rfoot -27.9267 -9.49951
rtoes -5.26629
lfemur -12.449 21.1797 -14.8871
ltibia 23.2502
lfoot -187.007 180.924
ltoes 14.7782
1939
root 13.9361 27.5906 49.7235 -184.252 14.424 -173.859
lowerback 30.0194 -3.89719 -0.412721
upperback 5.26106 -3.95324 0.478835
thorax -10.5039 -1.32792 2.1889
lowerneck -7.21822 4.18751 -18.3705
upperneck 19.1289 7.52823 9.04163
head 5.96534 3.44395 6.46951
rclavicle 3.57812e-015 4.13472e-014
rhumerus 97.558 15.2609 -76.0837
rradius 42.9189
rwrist -343.645
rhand -15.1305 -23.5582
rfingers 7.12502
rthumb 11.0389 -53.2479
lclavicle 3.57812e-015 4.13472e-014
lhumerus 51.3696 17.1483 39.0583
lradius 70.8054
lwrist -22.515
lhand -56.4536 -40.3891
lfingers 7.12502
lthumb -28.7696 -12.5859
rfemur -61.2683 8.95129 33.3841
rtibia 91.9258
rfoot -27.2841 -10.3325
rtoes -3.65694
lfemur -11.9993 21.0003 -14.5194
ltibia 22.9165
lfoot -186.962 181.023
ltoes 13.8467
